<svg xmlns="http://www.w3.org/2000/svg" xmlns:bx="https://boxy-svg.com" id="svg" version="1.1" viewBox="6.45 4.05 859.09 885.6">
  <defs>
    <bx:export>
      <bx:file format="svg"/>
    </bx:export>
  </defs>
  <path d="M 36.902 5.653 C 22.972 10.419 12.706 20.747 8.561 34.167 L 6.449 41.005 L 6.473 446.149 C 6.49 715.539 6.837 852.763 7.509 855.679 C 11.369 872.423 26.034 885.935 43.449 888.794 C 47.971 889.537 130.907 889.775 315.949 889.578 L 581.949 889.294 L 588.576 887.042 C 601.218 882.746 611.866 872.103 616.19 859.443 C 617.857 854.565 617.954 833.018 618.046 449.294 C 618.099 226.544 617.757 41.819 617.287 38.794 C 615.325 26.182 605.372 13.494 592.751 7.516 L 585.949 4.294 L 313.949 4.11 C 58.633 3.938 41.639 4.033 36.902 5.653 M 769.337 8.239 C 769.092 8.484 765.928 9.158 762.305 9.737 C 734.342 14.204 708.283 31.682 691.097 57.497 C 673.219 84.353 662.975 117.268 657.236 166.294 C 655.46 181.47 655.47 261.883 657.251 278.294 C 665.574 355.022 688.807 401.391 729.577 422.646 C 760.46 438.747 823.674 438.16 856.608 421.731 C 856.608 421.731 855.242 329.794 855.041 329.794 C 854.839 329.794 850.911 331.791 846.312 334.232 C 830.197 342.784 814.764 346.29 796.364 345.58 C 772.688 344.666 758.914 335.704 748.37 314.351 C 742.987 303.45 739.584 291.519 736.736 273.563 C 735.22 264.003 734.949 255.698 734.949 218.794 C 734.949 178.381 735.104 174.443 737.136 163.294 C 744.042 125.395 757.816 105.471 782.098 98.256 C 789.865 95.949 811.966 95.943 821.949 98.246 C 830.644 100.252 832.801 101.059 843.631 106.35 C 850.652 109.78 852.421 110.308 852.881 109.111 C 853.193 108.297 853.449 89.421 853.449 67.164 L 853.449 26.699 L 850.699 24.098 C 844.326 18.072 826.708 11.707 808.68 8.918 C 801.754 7.847 770.273 7.304 769.337 8.239 M 584.949 23.666 C 587.149 24.671 590.859 27.412 593.194 29.756 C 601.156 37.752 600.449 -2.896 600.449 446.991 C 600.449 766.402 600.19 850.676 599.199 853.932 C 597.629 859.092 591.474 866.199 586.077 869.086 L 581.949 871.294 L 315.449 871.598 C 122.9 871.818 47.512 871.594 43.77 870.792 C 36.506 869.235 30.293 864.214 26.781 857.061 L 23.949 851.294 L 23.949 447.294 C 23.949 129.473 24.213 42.429 25.185 39.241 C 26.918 33.554 32.929 26.945 38.893 24.168 L 43.949 21.814 L 312.449 21.826 C 570.382 21.837 581.106 21.91 584.949 23.666 M 115.925 63.406 C 112.638 67.719 102.873 78.56 94.224 87.497 C 77.274 105.012 68.762 115.683 64.745 124.458 C 52.432 151.353 74.824 179.483 100.808 169.761 C 103.875 168.613 108.327 165.787 111.025 163.274 C 113.656 160.824 115.889 158.926 115.987 159.057 C 116.085 159.187 115.358 163.457 114.371 168.545 C 112.564 177.862 109.001 186.224 103.323 194.477 L 100.353 198.794 L 121.96 198.794 C 138.991 198.794 143.403 198.529 142.795 197.544 C 142.37 196.857 140.3 193.7 138.194 190.53 C 133.305 183.168 131.113 178.006 129.08 169.068 C 126.603 158.181 126.758 157.962 132.937 163.609 C 139.832 169.91 146.267 172.243 154.856 171.554 C 166.661 170.606 176.201 163.375 180.425 152.175 C 182.254 147.325 182.561 144.892 182.176 138.294 C 181.368 124.458 174.556 113.267 154.785 93.294 C 144.231 82.631 131.754 68.486 124.425 58.875 L 121.902 55.565 L 115.925 63.406 M 283.449 248.422 C 261.041 250.644 245.801 254.578 230.953 261.972 C 167.885 293.379 135.708 371.207 125.807 516.294 C 123.554 549.315 123.559 614.324 125.818 649.794 C 127.7 679.36 131.261 717.169 132.459 720.32 C 133.086 721.969 136.534 723.728 146.751 727.61 C 224.271 757.066 295.219 758.483 361.72 731.904 C 372.387 727.64 383.449 721.975 383.449 720.775 C 383.449 720.229 380.576 714.047 377.064 707.038 C 373.552 700.029 368.793 689.119 366.487 682.794 C 364.182 676.469 361.657 669.719 360.876 667.794 C 358.36 661.594 352.463 638.641 350.213 626.294 C 347.154 609.503 347.185 584.815 350.279 573.452 C 353.077 563.176 357.503 554.341 363.001 548.056 C 365.447 545.26 367.449 542.755 367.449 542.491 C 367.449 542.227 366.211 541.706 364.699 541.333 C 355.375 539.033 340.598 530.245 331.418 521.539 C 313.612 504.654 305.433 489.251 305.459 472.65 C 305.474 462.828 308.502 457.444 320.92 445.161 C 329.976 436.203 331.915 433.665 335.881 425.581 C 341.621 413.881 343.017 408.355 345.497 387.508 C 348.658 360.941 351.073 352.771 359.216 341.088 C 366.708 330.341 376.451 323.07 387.069 320.305 C 393.488 318.633 402.936 318.374 408.699 319.713 C 410.762 320.192 412.449 320.249 412.449 319.841 C 412.449 318.849 402.271 302.682 397.885 296.707 C 392.618 289.531 379.605 277.739 369.904 271.35 C 354.645 261.3 336.87 254.212 318.473 250.838 C 308.193 248.953 290.444 247.729 283.449 248.422 M 287.718 327.262 C 291.704 328.927 296.854 333.729 298.86 337.65 C 302.839 345.428 301.126 356.098 294.933 362.112 C 291.374 365.569 283.728 368.807 279.144 368.799 C 270.202 368.783 258.449 357.43 258.449 348.807 C 258.449 342.462 260.798 334.599 263.501 331.895 C 268.77 326.627 280.724 324.34 287.718 327.262 M 390.949 333.651 C 382.009 336.588 372.232 345.304 367.652 354.419 C 363.878 361.931 361.971 370.589 359.972 389.294 C 358.079 406.997 356.425 414.354 351.792 425.659 C 346.981 437.399 342.918 443.306 331.446 455.249 C 321.808 465.282 321.449 465.816 321.449 470.153 L 321.449 474.65 L 326.699 476.598 C 331.473 478.368 340.243 480.853 364.449 487.294 C 388.466 493.684 399.063 496.55 421.949 502.844 C 492.996 522.383 520.816 527.377 536.383 523.389 C 539.914 522.485 543.399 521.251 544.126 520.647 C 546.071 519.033 545.737 511.631 543.481 506.368 C 539.644 497.417 531.127 490.11 508.529 476.381 C 480.014 459.056 454.817 434.334 440.155 409.294 C 431.571 394.635 426.127 378.316 424.372 361.989 C 422.691 346.34 418.587 339.511 407.949 334.661 C 403.958 332.842 395.026 332.311 390.949 333.651 M 411.384 416.26 C 418.133 419.75 427.623 434.049 429.359 443.344 C 429.817 445.791 430.024 447.794 429.82 447.794 C 429.616 447.794 427.615 445.96 425.374 443.719 C 423.133 441.478 418.295 438.196 414.624 436.427 C 402.911 430.782 400.449 428.271 400.449 421.969 C 400.449 415.708 405.359 413.145 411.384 416.26 M 755.949 458.325 C 733.48 461.194 717.015 467.558 700.699 479.68 C 679.827 495.187 663.556 519.732 652.231 552.794 L 647.949 565.294 L 638.069 618.505 L 635.223 671.238 L 637.062 729.824 L 647.413 776.079 L 650.022 785.686 C 663.821 836.501 693.147 868.763 734.973 879.142 C 755.741 884.296 785.003 884.494 806.949 879.63 C 829.375 874.659 852.3 866.021 862.68 858.629 L 865.449 856.658 L 865.492 825.476 L 865.536 794.294 L 862.953 652.846 L 804.606 653.034 L 759.949 653.294 L 759.687 691.522 L 759.425 729.75 L 778.187 730.022 L 796.949 730.294 L 796.949 761.786 L 796.949 793.278 L 793.12 795.081 C 787.937 797.522 781.5 798.868 772.01 799.497 C 747.271 801.136 729.834 787.231 721.595 759.294 C 715.866 739.871 714.074 719.793 714.006 674.294 C 713.933 625.847 715.947 607.753 723.662 587.552 C 733.511 561.759 751.56 548.569 778.949 547.147 C 800.797 546.013 821.396 550.361 841.835 560.421 C 846.722 562.826 851.109 564.794 851.585 564.794 C 852.06 564.794 852.449 545.707 852.449 522.379 L 852.449 479.964 L 847.699 476.51 C 835.324 467.51 815.951 461.116 792.449 458.273 C 778.654 456.604 769.322 456.617 755.949 458.325 M 325.449 492.553 C 325.449 494.547 336.834 507.919 342.825 512.961 C 355.27 523.435 370.334 529.487 388.449 531.289 C 392.024 531.645 407.549 533.685 422.949 535.824 C 455.608 540.358 478.183 541.653 492.449 539.81 C 502.363 538.529 507.568 536.881 501.873 536.824 C 496.918 536.775 476.912 532.122 447.949 524.282 C 433.099 520.262 409.474 513.985 395.449 510.332 C 381.424 506.68 360.203 501.015 348.291 497.743 C 324.854 491.306 325.449 491.441 325.449 492.553 M 484.449 696.662 C 484.449 696.864 485.787 698.554 487.423 700.417 C 491.181 704.698 497.904 718.734 499.337 725.294 C 500.971 732.773 501.539 736.794 500.961 736.794 C 500.676 736.794 498.83 735.007 496.857 732.824 C 488.157 723.194 473.298 720.351 462.59 726.269 C 456.819 729.458 451.665 734.819 448.763 740.649 C 447.375 743.438 446.949 746.642 446.949 754.294 C 446.949 763.913 447.095 764.579 450.778 771.794 C 452.883 775.919 456.336 781.544 458.449 784.294 C 462.552 789.632 463.354 790.519 481.563 809.873 C 488.072 816.791 496.295 825.936 499.836 830.196 C 503.377 834.455 506.651 837.854 507.111 837.75 C 507.572 837.645 511.025 833.9 514.785 829.427 C 518.544 824.954 526.869 815.713 533.285 808.893 C 552.047 788.946 557.35 782.679 561.111 776.014 C 572.552 755.738 567.796 735.204 549.449 725.667 C 545.87 723.807 543.413 723.336 537.449 723.367 C 528.574 723.413 525.442 724.796 517.757 732.064 L 512.449 737.084 L 512.449 733.333 C 512.449 723.793 519.164 707.618 526.08 700.497 C 528.058 698.46 529.513 696.785 529.313 696.774 C 524.301 696.503 484.449 696.403 484.449 696.662" stroke="none" fill="black" fill-rule="evenodd"/>
</svg>